#!OML:ASF Y:\EmotionMaleHayes\Project 1\Capture day 1\Session 1\Male1.ASF
:FULLY-SPECIFIED
:DEGREES
1139
root 25.256 16.9925 -17.7577 399.301 77.6474 404.085
lowerback 6.34676 3.33371 -8.90882
upperback -1.13017 3.66001 -3.23974
thorax -5.10123 2.04972 1.18472
lowerneck -19.6564 1.67975 3.92942
upperneck 27.8983 1.21179 0.912414
head 12.5654 1.24741 -0.0839317
rclavicle -5.31749e-014 4.41302e-014
rhumerus -39.6759 3.33412 -85.5962
rradius 33.8218
rwrist 2.3462
rhand -8.22088 -32.8056
rfingers 7.12502
rthumb 17.6963 -62.0203
lclavicle -5.31749e-014 4.41302e-014
lhumerus -32.9988 -3.73678 81.7442
lradius 29.3759
lwrist -9.66114
lhand -15.3119 -22.1858
lfingers 7.12502
lthumb 10.8639 7.51317
rfemur 10.6973 1.65155 5.05086
rtibia 49.7484
rfoot 3.66455 -8.90938
rtoes 30.9593
lfemur 3.8692 12.549 -27.5449
ltibia 4.28501
lfoot -5.45333 1.4471
ltoes 11.3635
1140
root 25.3643 16.9916 -17.7814 400.121 77.4404 405.106
lowerback 6.62977 3.24188 -9.34845
upperback -1.17485 3.46495 -3.22623
thorax -5.32149 1.97471 1.4438
lowerneck -19.7079 1.80258 4.03488
upperneck 28.1614 1.35857 0.911745
head 12.6865 1.33141 -0.0741485
rclavicle -2.75565e-014 3.57812e-014
rhumerus -40.1999 3.0224 -85.3604
rradius 33.5311
rwrist 2.61366
rhand -8.11459 -32.7093
rfingers 7.12502
rthumb 17.7986 -61.9147
lclavicle -2.75565e-014 3.57812e-014
lhumerus -32.7901 -4.11887 81.995
lradius 30.2668
lwrist -8.83283
lhand -15.7351 -22.3379
lfingers 7.12502
lthumb 10.4557 7.38205
rfemur 9.53051 1.66713 4.74298
rtibia 51.2677
rfoot 2.76473 -8.5803
rtoes 31.399
lfemur 4.48059 12.4961 -27.9153
ltibia 4.25591
lfoot -5.92132 1.44399
ltoes 11.3714
1141
root 25.4769 16.9911 -17.8077 401.447 77.3126 406.616
lowerback 6.82143 3.07854 -9.82989
upperback -1.15682 3.18574 -3.20241
thorax -5.41461 1.85525 1.75759
lowerneck -19.3743 1.96941 3.94957
upperneck 27.7561 1.59308 1.05872
head 12.4566 1.43526 0.0267763
rclavicle 2.25372e-014 -1.07344e-014
rhumerus -40.5601 2.48875 -84.994
rradius 33.2463
rwrist 3.15317
rhand -8.16399 -32.4805
rfingers 7.12502
rthumb 17.751 -61.6902
lclavicle 2.25372e-014 -1.07344e-014
lhumerus -32.294 -4.50113 82.2612
lradius 30.8936
lwrist -7.87252
lhand -16.0188 -22.1976
lfingers 7.12502
lthumb 10.182 7.53597
rfemur 8.51307 1.5612 4.35692
rtibia 52.4702
rfoot 2.02746 -8.25627
rtoes 31.7828
lfemur 5.14398 12.4351 -28.3617
ltibia 4.11871
lfoot -6.27786 1.37495
ltoes 11.1346
1142
root 25.5811 16.9955 -17.8379 401.629 77.2569 406.782
lowerback 6.8193 2.94472 -9.97699
upperback -1.0847 3.00248 -3.15079
thorax -5.32819 1.76499 1.91942
lowerneck -19.6644 2.19496 4.72743
upperneck 27.8416 1.91453 0.136009
head 12.5757 1.53209 -0.400633
rclavicle -9.7156e-015 -2.18663e-014
rhumerus -40.6962 1.94505 -84.6678
rradius 32.9938
rwrist 3.47175
rhand -8.31414 -32.3807
rfingers 7.12502
rthumb 17.6066 -61.6036
lclavicle -9.7156e-015 -2.18663e-014
lhumerus -31.6021 -4.84451 82.436
lradius 31.5741
lwrist -7.1742
lhand -16.8463 -22.3759
lfingers 7.12502
lthumb 9.38361 7.39522
rfemur 7.18798 1.49633 4.25891
rtibia 53.5694
rfoot 1.65596 -8.02572
rtoes 31.7438
lfemur 5.58188 12.3864 -28.5944
ltibia 3.99074
lfoot -6.61809 1.4028
ltoes 10.7501
1143
root 25.6888 17.0042 -17.8637 401.656 77.2822 406.767
lowerback 6.75743 2.8064 -10.0207
upperback -1.02975 2.82827 -3.10137
thorax -5.22003 1.67547 2.02324
lowerneck -19.6368 2.40375 4.59235
upperneck 27.7586 2.13279 0.549438
head 12.5369 1.66816 -0.1847
rclavicle -6.28657e-015 0
rhumerus -40.8335 1.55012 -84.4337
rradius 32.6246
rwrist 3.62333
rhand -8.18503 -32.5127
rfingers 7.12502
rthumb 17.7308 -61.7243
lclavicle -6.28657e-015 0
lhumerus -31.0138 -5.26385 82.5893
lradius 32.3124
lwrist -6.47969
lhand -16.6669 -22.3759
lfingers 7.12502
lthumb 9.55673 7.3874
rfemur 5.82117 1.39423 4.31009
rtibia 54.6327
rfoot 0.965955 -7.38577
rtoes 30.4308
lfemur 5.99755 12.2757 -28.707
ltibia 3.8839
lfoot -6.95323 1.45607
ltoes 10.3386
1144
root 25.8046 17.0126 -17.8893 403.178 77.0611 408.438
lowerback 6.82797 2.6844 -10.4823
upperback -1.01013 2.6205 -3.1545
thorax -5.23681 1.5876 2.24379
lowerneck -19.5867 2.30231 4.68553
upperneck 27.6618 2.06619 0.176048
head 12.4905 1.59376 -0.355944
rclavicle -2.28602e-014 6.91771e-014
rhumerus -41.1199 1.05232 -84.0884
rradius 32.1524
rwrist 3.89441
rhand -8.14898 -32.415
rfingers 7.12502
rthumb 17.7655 -61.6235
lclavicle -2.28602e-014 6.91771e-014
lhumerus -30.5891 -5.75256 82.807
lradius 32.9474
lwrist -5.88876
lhand -16.9884 -22.4282
lfingers 7.12502
lthumb 9.2465 7.34906
rfemur 4.75642 1.20688 3.79223
rtibia 55.549
rfoot 0.37625 -6.66474
rtoes 28.4399
lfemur 6.66358 12.28 -29.2798
ltibia 3.63512
lfoot -7.11319 1.42483
ltoes 9.03499
1145
root 25.9163 17.022 -17.9206 405.219 76.72 410.608
lowerback 6.80947 2.53195 -11.0259
upperback -0.957728 2.38048 -3.28447
thorax -5.16125 1.48182 2.43753
lowerneck -19.4916 2.29068 4.36453
upperneck 27.6193 2.02126 0.637404
head 12.4436 1.6021 -0.134896
rclavicle -1.35671e-014 -6.75868e-015
rhumerus -41.4429 0.592028 -83.8161
rradius 31.9858
rwrist 3.77267
rhand -8.29334 -32.4391
rfingers 7.12502
rthumb 17.6266 -61.6601
lclavicle -1.35671e-014 -6.75868e-015
lhumerus -30.1488 -6.22131 82.9463
lradius 33.5808
lwrist -5.28203
lhand -17.0109 -22.1234
lfingers 7.12502
lthumb 9.22482 7.65478
rfemur 3.68788 0.989106 3.01416
rtibia 56.3102
rfoot -0.321475 -5.94347
rtoes 27.6582
lfemur 7.25285 12.3804 -30.0981
ltibia 3.37821
lfoot -7.18254 1.28499
ltoes 8.02916
1146
root 26.024 17.031 -17.9469 406.61 76.5269 412.055
lowerback 6.79558 2.39647 -11.4122
upperback -0.926054 2.1745 -3.3355
thorax -5.10801 1.38923 2.62256
lowerneck -19.1966 2.4426 4.88193
upperneck 27.4972 2.29356 -0.0420586
head 12.3568 1.68392 -0.440382
rclavicle -1.02374e-014 -6.55989e-015
rhumerus -41.8265 0.454983 -83.7281
rradius 31.9413
rwrist 2.82544
rhand -8.90072 -32.6685
rfingers 7.12502
rthumb 17.042 -61.941
lclavicle -1.02374e-014 -6.55989e-015
lhumerus -29.7135 -6.80736 83.1176
lradius 34.2689
lwrist -4.61909
lhand -17.2638 -22.1679
lfingers 7.12502
lthumb 8.98079 7.6209
rfemur 2.48721 0.85259 2.59521
rtibia 56.9658
rfoot -1.1302 -5.44974
rtoes 27.949
lfemur 7.73425 12.3577 -30.657
ltibia 3.17461
lfoot -7.37085 1.17454
ltoes 7.97491
1147
root 26.1315 17.0377 -17.9671 407.855 76.5462 413.376
lowerback 6.91952 2.24524 -11.688
upperback -0.939719 1.93175 -3.30769
thorax -5.17288 1.28179 2.82805
lowerneck -19.4062 2.56639 4.55635
upperneck 27.8257 2.41152 0.500996
head 12.5227 1.78302 -0.153394
rclavicle 2.04003e-014 -6.26172e-014
rhumerus -42.2116 -0.21984 -83.2152
rradius 31.839
rwrist 3.62541
rhand -7.97555 -33.0209
rfingers 7.12502
rthumb 17.9324 -62.2141
lclavicle 2.04003e-014 -6.26172e-014
lhumerus -29.351 -7.409 83.349
lradius 34.9003
lwrist -4.16436
lhand -18.3919 -23.026
lfingers 7.12502
lthumb 7.89214 6.80669
rfemur 1.34129 0.619368 2.46851
rtibia 57.5137
rfoot -2.06769 -5.02839
rtoes 26.8867
lfemur 8.23312 12.2342 -30.9534
ltibia 3.07106
lfoot -7.57716 1.04243
ltoes 6.98151
1148
root 26.2358 17.0444 -17.9925 409.456 76.4992 415.006
lowerback 7.00039 2.03156 -12.0385
upperback -0.951533 1.60574 -3.32567
thorax -5.1979 1.13422 3.03878
lowerneck -19.3052 2.6046 4.74171
upperneck 27.6645 2.46744 0.290987
head 12.4447 1.79413 -0.258848
rclavicle -1.43498e-014 3.61788e-014
rhumerus -42.5149 -0.915499 -82.7903
rradius 31.6526
rwrist 4.20944
rhand -7.79876 -32.7957
rfingers 7.12502
rthumb 18.1025 -61.9734
lclavicle -1.43498e-014 3.61788e-014
lhumerus -29.0484 -7.78041 83.4566
lradius 35.5526
lwrist -3.81926
lhand -18.3576 -22.7719
lfingers 7.12502
lthumb 7.92516 7.05957
rfemur 0.212577 0.212315 2.13491
rtibia 58.0327
rfoot -3.14189 -4.33585
rtoes 25.2412
lfemur 8.62203 12.1216 -31.4218
ltibia 3.1124
lfoot -7.82806 0.911835
ltoes 6.88039
1149
root 26.3407 17.0495 -18.0157 410.317 76.4375 415.86
lowerback 7.00434 1.86341 -12.3154
upperback -0.961438 1.35857 -3.30015
thorax -5.18417 1.02126 3.24786
lowerneck -19.2822 2.74069 4.83091
upperneck 27.6739 2.62313 0.328896
head 12.4495 1.87762 -0.234054
rclavicle 1.51325e-014 -1.05356e-014
rhumerus -42.8704 -1.21949 -82.5148
rradius 31.5922
rwrist 4.14962
rhand -7.70538 -32.6887
rfingers 7.12502
rthumb 18.1923 -61.858
lclavicle 1.51325e-014 -1.05356e-014
lhumerus -28.7654 -8.13408 83.558
lradius 36.2447
lwrist -3.47016
lhand -18.6254 -22.8352
lfingers 7.12502
lthumb 7.66674 7.00578
rfemur -0.958986 0.176665 2.01019
rtibia 58.1134
rfoot -3.87274 -3.94517
rtoes 25.6036
lfemur 9.05795 11.9453 -31.7677
ltibia 2.99217
lfoot -8.11928 0.909684
ltoes 8.40582
1150
root 26.4508 17.0533 -18.0311 409.642 76.7112 415.19
lowerback 6.94522 1.70604 -12.1306
upperback -0.9581 1.17543 -3.14658
thorax -5.11791 0.922145 3.33403
lowerneck -18.9831 2.8805 5.15183
upperneck 27.5266 2.82008 0.0571153
head 12.3457 1.9607 -0.364598
rclavicle 2.77056e-015 -1.33186e-014
rhumerus -43.4274 -1.3129 -82.296
rradius 31.812
rwrist 3.85632
rhand -7.45059 -32.897
rfingers 7.12502
rthumb 18.4374 -62.0432
lclavicle 2.77056e-015 -1.33186e-014
lhumerus -28.3528 -8.62602 83.6536
lradius 36.7274
lwrist -3.0359
lhand -18.9665 -22.9782
lfingers 7.12502
lthumb 7.33749 6.87458
rfemur -2.1868 0.464391 2.71622
rtibia 58.3039
rfoot -4.77542 -3.96944
rtoes 26.2602
lfemur 9.6263 11.7999 -31.4276
ltibia 2.71212
lfoot -8.28685 1.0153
ltoes 7.81246
1151
root 26.5603 17.0578 -18.05 410.006 76.8136 415.621
lowerback 6.9339 1.50647 -12.2072
upperback -0.940019 0.908224 -3.09535
thorax -5.05461 0.789497 3.46356
lowerneck -19.2083 3.00937 5.50629
upperneck 27.7872 2.99709 -0.333597
head 12.5153 2.02758 -0.538267
rclavicle -7.33018e-016 2.38542e-015
rhumerus -43.9567 -1.52887 -82.0839
rradius 32.004
rwrist 3.77708
rhand -7.18858 -33.1438
rfingers 7.12502
rthumb 18.6894 -62.2659
lclavicle -7.33018e-016 2.38542e-015
lhumerus -27.8332 -9.08896 83.6559
lradius 37.134
lwrist -2.53865
lhand -19.0248 -22.9936
lfingers 7.12502
lthumb 7.2812 6.8611
rfemur -3.31215 0.537723 2.99575
rtibia 58.4383
rfoot -5.81054 -3.90863
rtoes 25.2446
lfemur 10.1432 11.8381 -31.4305
ltibia 2.59688
lfoot -8.39425 0.961467
ltoes 6.34359
